<svg xmlns="http://www.w3.org/2000/svg" viewBox="0 0 350 440">
  <title>Diffuse - d</title>
  <g>
    <path
      d="M154.501 35.5526C145.972 35.5355 29.1024 35.5797 29.1024 35.5797L27.0289 35.5881L26.0578 33.9714L20.5784 24.4989L57.8965 24.6362C57.8965 24.6362 120.398 24.3131 151.649 24.3291C156.957 24.3318 162.344 25.0594 167.651 25.5493C176.212 26.3396 184.563 28.1196 192.794 30.5163C200.507 32.7624 208.226 35.1517 215.647 38.1969C223.53 41.4317 231.296 45.1111 238.69 49.3353C246.202 53.6264 253.351 58.6081 260.381 63.6728C268.399 69.4491 275.723 76.1174 282.343 83.4483C288.284 90.028 294.085 96.7789 299.412 103.858C306.514 113.294 312.357 123.558 317.389 134.259C322.404 144.924 326.531 155.932 329.347 167.374C330.995 174.072 332.342 180.871 333.341 187.695C334.299 194.248 334.754 200.884 335.203 207.498C335.527 212.263 335.721 217.062 335.536 221.828C335.323 227.332 334.677 232.823 334.137 238.311C332.743 252.477 329.368 266.193 324.682 279.609C321.208 289.554 316.804 299.072 311.779 308.326C306.972 317.178 301.395 325.518 295.267 333.482C289.562 340.898 283.143 347.688 276.439 354.222C269.987 360.51 263.085 366.249 255.79 371.5C246.608 378.11 236.921 383.913 226.699 388.79C214.085 394.807 200.972 399.443 187.36 402.583C181.554 403.923 175.668 404.972 169.773 405.849C165.46 406.491 161.078 406.875 156.718 406.959C138.783 407.302 120.845 407.486 102.909 407.728C102.612 407.732 102.316 407.729 101.912 407.729C101.912 403.989 101.912 400.321 101.912 396.439C102.519 396.439 103.161 396.439 103.804 396.439C116.124 396.44 128.444 396.473 140.764 396.423C145.486 396.404 150.225 396.411 154.925 396.029C164.115 395.283 173.247 394.142 182.287 392.139C193.814 389.585 204.966 386.017 215.797 381.338C229.631 375.363 242.579 367.88 254.28 358.399C260.902 353.032 267.414 347.452 273.411 341.408C283.932 330.803 292.808 318.857 300.265 305.885C307.947 292.522 313.969 278.449 317.864 263.535C319.592 256.921 320.985 250.193 322.047 243.441C323.019 237.261 323.491 230.989 323.902 224.739C324.247 219.492 324.483 214.205 324.252 208.959C323.386 189.257 319.655 170.082 312.605 151.646C307.074 137.183 299.838 123.591 290.734 111.017C285.991 104.466 280.855 98.2684 275.36 92.3271C266.721 82.9861 257.076 74.8673 246.689 67.5655C239.166 62.2769 231.258 57.6526 223.02 53.6006C210.81 47.5947 198.047 43.0341 184.791 40.0235C178.109 38.5058 163.28 35.5702 154.501 35.5526Z"
      fill="#FFFFFF" fill-rule="nonzero" opacity="1" stroke="none" />
    <path
      d="M232.32 363.428C225.278 367.078 218.497 370.989 211.373 374.118C205.01 376.913 198.353 379.137 191.669 381.072C185.289 382.919 178.73 384.182 172.207 385.491C164.924 386.953 157.547 387.662 150.106 387.71C136.04 387.8 121.975 387.936 107.91 388.072C105.947 388.091 103.986 388.069 101.914 388.046C101.914 384.343 101.914 380.672 101.914 376.774C102.506 376.774 103.146 376.774 103.787 376.774C117.139 376.774 130.491 376.801 143.843 376.758C147.709 376.745 151.586 376.692 155.436 376.38C170.516 375.161 185.235 372.125 199.437 366.884C213.161 361.819 226.046 355.049 237.845 346.396C243.291 342.402 248.445 337.964 253.424 333.394C257.909 329.277 262.183 324.886 266.18 320.294C273.42 311.975 279.601 302.874 284.932 293.21C290.341 283.405 294.632 273.126 297.858 262.409C300.074 255.049 301.921 247.597 302.818 239.946C303.36 235.325 303.983 230.703 304.233 226.062C304.549 220.205 304.804 214.318 304.564 208.464C304.334 202.868 303.509 197.289 302.814 191.718C301.503 181.202 298.723 171.036 295.164 161.081C289.699 145.796 281.993 131.686 272.161 118.799C267.976 113.314 263.428 108.057 258.621 103.107C251.563 95.8394 243.784 89.3676 235.425 83.5834C227.775 78.2893 219.746 73.6993 211.325 69.7893C200.866 64.9322 190.052 61.0584 178.702 58.8803C172.766 57.7411 166.786 56.7922 160.794 55.9881C157.172 55.5021 153.494 55.3071 149.836 55.2456C141.056 55.0981 132.272 55.0869 123.49 55.0621C120.276 55.053 117.061 55.2067 113.847 55.2085C89.5702 55.2218 41.0171 55.2455 41.0171 55.2455L39.1169 55.2381L38.2703 53.8157C38.2703 53.8157 34.3179 47.2968 32.2539 43.9267C40.2764 43.9267 48.0989 43.9304 55.9215 43.926C82.3222 43.9111 108.723 43.8895 135.124 43.8795C141.434 43.8771 147.752 43.7386 154.053 43.986C158.337 44.1541 162.596 44.9142 166.871 45.3588C174.35 46.1365 181.638 47.8324 188.902 49.7204C196.996 51.8241 204.844 54.6133 212.488 57.9552C222.703 62.4207 232.502 67.6912 241.582 74.1818C246.367 77.6023 251.084 81.162 255.513 85.0242C260.704 89.5508 265.783 94.2548 270.49 99.276C278.209 107.51 284.922 116.556 290.815 126.204C297.881 137.773 303.514 149.991 307.661 162.895C310.132 170.583 312.271 178.364 313.352 186.375C314.245 192.99 315.035 199.631 315.512 206.286C315.918 211.95 316.096 217.662 315.854 223.331C315.609 229.05 314.78 234.748 314.106 240.443C312.633 252.892 309.361 264.916 304.959 276.607C299.918 289.993 293.385 302.656 284.973 314.254C280.949 319.804 276.623 325.156 272.142 330.346C268.507 334.554 264.605 338.566 260.525 342.345C251.909 350.324 242.599 357.421 232.32 363.428Z"
      fill="#FFFFFF" fill-rule="nonzero" opacity="1" stroke="none" />
    <path
      d="M249.747 325.518C240.954 334.188 231.228 341.43 220.701 347.592C210.995 353.272 200.837 358.033 190.025 361.161C183.083 363.169 176.011 364.836 168.901 366.13C163.167 367.173 157.295 367.869 151.474 367.953C134.996 368.191 118.513 368.036 101.916 368.036C101.916 364.671 101.916 361.003 101.916 357.11C102.507 357.11 103.148 357.11 103.789 357.11C117.99 357.11 132.192 357.206 146.392 357.077C156.124 356.988 165.719 355.69 175.242 353.561C187.84 350.745 199.748 346.203 211.084 340.124C219.203 335.771 226.869 330.702 233.842 324.653C237.527 321.457 241.302 318.33 244.691 314.838C253.108 306.166 260.395 296.617 266.434 286.105C273.378 274.019 278.39 261.194 281.537 247.648C282.581 243.156 283.108 238.544 283.89 233.99C285.396 225.217 285.296 216.346 284.859 207.54C284.522 200.748 283.237 193.986 282.113 187.254C280.645 178.463 277.836 170.042 274.415 161.827C270.251 151.826 265.244 142.26 258.64 133.654C254.12 127.766 249.44 121.949 244.328 116.579C237.206 109.098 229.137 102.662 220.402 97.0872C212.948 92.3304 205.176 88.2241 196.971 84.9103C188.227 81.3792 179.287 78.522 169.959 77.0938C163.907 76.1674 157.814 75.1654 151.716 74.9715C138.637 74.5558 125.542 74.5327 112.454 74.5473C92.7331 74.5693 51.2651 74.6302 51.2651 74.6302L50.5176 73.4273C50.5176 73.4273 46.5731 67.0466 44.4197 63.5918C45.3352 63.5918 45.9707 63.5922 46.6063 63.5917C69.7285 63.5717 92.8508 63.5783 115.973 63.5187C125.68 63.4937 135.393 63.0752 145.092 63.312C152.141 63.4841 159.2 64.2003 166.202 65.0909C183.516 67.2934 199.776 72.8938 215.184 81.0077C224.147 85.7272 232.663 91.1673 240.313 97.8254C245.635 102.457 250.923 107.175 255.793 112.268C263.252 120.07 269.612 128.778 275.101 138.082C281.538 148.991 286.778 160.457 290.099 172.701C291.822 179.059 293.148 185.534 294.421 192.002C296.42 202.163 296.575 212.476 296.197 222.768C295.992 228.366 295.341 233.986 294.383 239.508C293.229 246.162 291.751 252.78 290.026 259.311C287.662 268.26 284.068 276.785 279.843 285.004C275.242 293.957 270.034 302.572 263.491 310.267C259.088 315.446 254.399 320.382 249.747 325.518Z"
      fill="#FFFFFF" fill-rule="nonzero" opacity="1" stroke="none" />
    <path
      d="M128.388 82.8923C133.243 82.8923 137.916 82.9295 142.589 82.8856C159.478 82.7272 175.816 85.6963 191.57 91.7162C203.255 96.181 214.056 102.271 224.045 109.842C230.312 114.591 236.146 119.804 241.459 125.56C248.496 133.183 254.56 141.543 259.679 150.598C265.058 160.113 269.238 170.125 272.071 180.647C273.599 186.325 274.439 192.192 275.501 197.991C277.12 206.834 276.98 215.801 276.501 224.686C275.824 237.216 273.192 249.446 268.824 261.251C264.008 274.271 257.431 286.305 248.898 297.297C244.264 303.267 239.152 308.777 233.632 313.881C226.015 320.924 217.603 326.924 208.527 331.998C197.69 338.057 186.238 342.538 174.156 345.279C168.624 346.534 162.956 347.244 157.32 347.98C146.176 349.435 134.964 348.538 123.782 348.712C116.515 348.826 109.244 348.734 101.89 348.734C101.89 345.07 101.89 341.524 101.89 337.936C102.08 337.891 102.245 337.818 102.411 337.816C118.185 337.689 133.967 337.817 149.731 337.328C156.473 337.118 163.213 335.831 169.888 334.659C177.248 333.366 184.287 330.865 191.176 327.975C199.414 324.518 207.259 320.313 214.378 314.923C219.49 311.052 224.516 307.006 229.16 302.596C235.372 296.695 240.756 290.02 245.459 282.83C252.688 271.776 258.206 259.927 261.433 247.11C262.814 241.624 263.775 236.006 264.522 230.395C265.195 225.344 265.708 220.212 265.605 215.129C265.297 200.014 262.731 185.32 257.055 171.184C252.763 160.495 247.209 150.575 240.224 141.472C235.234 134.967 229.549 129.09 223.333 123.702C215.131 116.592 206.171 110.661 196.403 105.997C186.974 101.495 177.159 98.0315 166.793 96.387C162.099 95.6424 157.371 95.1004 152.647 94.566C150.438 94.3161 148.202 94.199 145.977 94.197C118.971 94.1728 63.328 94.2258 63.328 94.2258L62.5274 92.9425C62.5274 92.9425 58.7012 86.6025 56.4629 82.8923C80.5996 82.8923 104.403 82.8923 128.388 82.8923Z"
      fill="#FFFFFF" fill-rule="nonzero" opacity="1" stroke="none" />
    <path
      d="M242.348 188.587C240.233 181.557 237.747 174.829 234.349 168.478C230.732 161.718 226.508 155.375 221.483 149.552C214.236 141.152 205.98 133.94 196.467 128.258C186.798 122.482 176.458 118.339 165.388 115.99C157.605 114.339 149.78 113.781 141.846 113.815C120.364 113.907 77.3979 113.877 77.3979 113.877L75.5918 113.898L74.6454 112.402C74.6454 112.402 70.9754 106.496 69.1428 103.541C68.9716 103.265 68.9192 102.915 68.7972 102.557C96.0692 102.557 123.26 102.317 150.442 102.674C161.476 102.819 172.243 105.447 182.647 109.284C194.102 113.51 204.6 119.398 214.198 126.966C225.476 135.857 234.679 146.546 241.922 158.881C247.757 168.817 251.993 179.465 254.347 190.773C255.334 195.515 256.014 200.338 256.528 205.157C257 209.581 257.39 214.06 257.241 218.496C256.801 231.613 254.422 244.399 249.631 256.66C245.445 267.371 239.984 277.394 232.549 286.213C228.668 290.817 224.724 295.443 220.294 299.498C207.669 311.055 193.127 319.415 176.676 324.329C170.211 326.26 163.66 327.839 156.911 328.318C151.811 328.679 146.698 328.96 141.587 329.042C128.969 329.244 116.35 329.312 103.731 329.432C103.139 329.438 102.547 329.433 101.881 329.433C101.881 325.628 101.881 321.959 101.881 318.133C102.7 318.133 103.469 318.139 104.239 318.132C117.101 318.016 129.963 317.919 142.824 317.77C146.876 317.723 150.952 317.79 154.97 317.362C163.134 316.493 171.126 314.679 178.834 311.817C187.15 308.73 194.99 304.697 202.259 299.574C209.362 294.569 215.701 288.752 221.385 282.176C227.194 275.457 231.975 268.099 235.838 260.113C239.812 251.898 242.765 243.351 244.172 234.323C244.815 230.2 245.271 226.041 245.617 221.883C245.897 218.516 246.15 215.11 245.952 211.749C245.492 203.977 244.445 196.27 242.348 188.587Z"
      fill="#FFFFFF" fill-rule="nonzero" opacity="1" stroke="none" />
    <path
      d="M114.186 122.222C125.168 122.222 135.968 122.212 146.769 122.225C157.383 122.238 167.563 124.51 177.43 128.276C186.869 131.88 195.463 136.928 203.286 143.355C212.633 151.033 220.143 160.156 226.026 170.721C230.948 179.562 234.161 188.978 236.095 198.845C236.768 202.28 236.958 205.815 237.254 209.315C237.477 211.953 237.654 214.609 237.612 217.254C237.485 225.265 236.351 233.144 234.228 240.877C230.882 253.068 225.21 264.109 217.422 274.014C212.833 279.851 207.541 285.044 201.653 289.633C195.754 294.23 189.422 298.081 182.646 301.195C175.79 304.345 168.62 306.528 161.203 307.972C152.77 309.613 144.239 309.661 135.716 309.742C124.493 309.848 113.268 309.768 101.923 309.768C101.923 305.931 101.923 302.141 101.923 298.215C102.306 298.185 102.766 298.119 103.225 298.119C113.118 298.113 123.011 298.084 132.904 298.131C136.355 298.148 139.807 298.5 143.256 298.455C161.666 298.216 178.463 293.038 193.255 281.867C207.267 271.284 217.087 257.688 222.451 240.947C224.366 234.968 225.75 228.861 225.983 222.548C226.114 218.992 226.489 215.422 226.299 211.883C225.75 201.645 223.502 191.771 219.3 182.379C216.729 176.634 213.531 171.273 209.755 166.23C204.923 159.778 199.258 154.156 192.813 149.373C185.391 143.865 177.269 139.551 168.344 137.067C163.243 135.648 157.98 134.732 152.738 133.919C150.771 133.614 148.827 133.36 145.984 133.351C141.526 133.337 132.747 133.447 131.221 133.448C129.203 133.45 121.27 133.509 116.293 133.511C107.25 133.513 87.8612 133.456 87.8612 133.456L87.6229 133.073C87.6229 133.073 83.1606 126.036 80.7733 122.222C92.0869 122.222 103.045 122.222 114.186 122.222Z"
      fill="#FFFFFF" fill-rule="nonzero" opacity="1" stroke="none" />
    <path
      d="M195.495 247.594C199.042 241.69 202.453 235.467 203.841 228.878C204.488 225.807 204.836 222.657 205.085 219.524C205.283 217.027 205.176 214.5 205.115 211.988C204.955 205.429 203.412 199.162 201.155 193.024C198.698 186.341 194.118 180.311 189.548 174.923C185.004 169.567 179.7 165.023 173.621 161.402C167.339 157.66 160.622 155.067 153.479 153.673C150.038 153.002 146.497 152.851 143.001 152.846C129.289 152.825 115.576 152.672 101.865 152.839C101.133 152.848 99.6146 152.845 99.6146 152.845C99.6146 152.845 99.0832 151.828 98.6694 151.054C97.0153 147.961 94.972 145.076 92.9509 141.887C94.0675 141.887 94.8901 141.893 95.7127 141.887C112.094 141.766 128.477 141.448 144.855 141.597C154.621 141.686 164.082 143.741 173.128 147.67C182.674 151.817 191.044 157.613 198.072 165.21C207.142 175.013 213.268 186.439 216.193 199.567C217.734 206.483 218.339 213.46 217.916 220.477C217.437 228.404 215.741 236.132 212.679 243.502C209.518 251.109 205.358 258.084 199.912 264.325C189.055 276.767 175.633 284.821 159.495 288.241C155.783 289.027 151.957 289.635 148.178 289.674C132.779 289.834 117.378 289.741 101.891 289.741C101.891 286.079 101.891 282.533 101.891 278.45C106.017 278.45 110.119 278.45 114.222 278.45C123.446 278.45 132.672 278.564 141.895 278.424C156.419 278.203 169.406 273.594 180.797 264.491C186.705 259.77 191.524 254.154 195.495 247.594Z"
      fill="#FFFFFF" fill-rule="nonzero" opacity="1" stroke="none" />
  </g>
</svg>
